<?xml version="1.0" encoding="UTF-8" standalone="no"?>
<!-- Created with Inkscape (http://www.inkscape.org/) -->

<svg
   xmlns:dc="http://purl.org/dc/elements/1.1/"
   xmlns:cc="http://creativecommons.org/ns#"
   xmlns:rdf="http://www.w3.org/1999/02/22-rdf-syntax-ns#"
   xmlns:svg="http://www.w3.org/2000/svg"
   xmlns="http://www.w3.org/2000/svg"
   xmlns:sodipodi="http://sodipodi.sourceforge.net/DTD/sodipodi-0.dtd"
   xmlns:inkscape="http://www.inkscape.org/namespaces/inkscape"
   width="26.046816mm"
   height="50.270012mm"
   viewBox="0 0 26.046816 50.270012"
   version="1.1"
   id="svg8"
   inkscape:version="0.92.4 (5da689c313, 2019-01-14)"
   sodipodi:docname="cross-fingers.svg">
  <defs
     id="defs2" />
  <sodipodi:namedview
     id="base"
     pagecolor="#ffffff"
     bordercolor="#666666"
     borderopacity="1.0"
     inkscape:pageopacity="0.0"
     inkscape:pageshadow="2"
     inkscape:zoom="1.979899"
     inkscape:cx="59.370343"
     inkscape:cy="24.469693"
     inkscape:document-units="mm"
     inkscape:current-layer="layer1"
     showgrid="false"
     inkscape:window-width="2560"
     inkscape:window-height="1375"
     inkscape:window-x="0"
     inkscape:window-y="2225"
     inkscape:window-maximized="0"
     fit-margin-top="0"
     fit-margin-left="0"
     fit-margin-right="0"
     fit-margin-bottom="0" />
  <metadata
     id="metadata5">
    <rdf:RDF>
      <cc:Work
         rdf:about="">
        <dc:format>image/svg+xml</dc:format>
        <dc:type
           rdf:resource="http://purl.org/dc/dcmitype/StillImage" />
        <dc:title></dc:title>
      </cc:Work>
    </rdf:RDF>
  </metadata>
  <g
     inkscape:label="Layer 1"
     inkscape:groupmode="layer"
     id="layer1"
     transform="translate(43.072759,-220.0262)">
    <path
       style="fill:#586e75;stroke-width:1"
       d="m -42.389197,265.96118 c -0.571068,-1.06747 -0.584081,-1.31559 -0.653841,-12.46623 -0.06916,-11.05561 -0.05592,-11.40183 0.468815,-12.2529 1.000331,-1.62245 3.346371,-2.04327 4.805252,-0.86194 0.597955,0.48419 0.626152,0.48312 1.378423,-0.0525 0.713367,-0.50796 2.249051,-0.70435 3.332277,-0.42616 0.305075,0.0784 0.384275,-0.18453 0.368517,-1.22312 -0.01775,-1.17052 -0.329219,-1.87102 -2.703698,-6.08101 -2.86621,-5.08183 -3.061597,-5.73126 -2.166094,-7.19993 0.820354,-1.34542 1.649027,-1.73536 3.301299,-1.61433 0.901011,0.066 1.514773,0.38596 1.514773,0.38596 0.05809,-0.88482 0.109603,-1.83617 0.527607,-2.63175 0.424685,-0.8083 1.86423,-1.51001 3.072371,-1.51107 0.916381,-8e-4 1.481862,0.39642 2.116666,0.90418 1.265421,1.01217 1.073788,5.32122 1.120593,7.73906 l 0.132292,6.83389 3.695218,6.21771 c 5.612651,9.44406 5.036032,7.62645 5.036032,15.87441 0,6.08991 -0.0604,7.1456 -0.459269,8.02757 -0.796026,1.76014 -1.995721,3.08178 -3.693758,3.9303 0,0 -2.074831,0.75588 -2.678367,0.74272 -2.333112,-0.0509 -9.969503,-0.0797 -12.280389,-0.13363 -2.727709,-0.0636 -4.553679,-1.0522 -6.234719,-4.20123 z m 19.678523,2.44531 c 1.341626,-0.40196 2.771339,-1.61551 3.492844,-2.96474 0.563166,-1.05313 0.587635,-1.38067 0.587635,-7.86651 -0.244354,-3.07272 0.46586,-4.94559 -0.800746,-8.06279 -0.54595,-0.93564 -1.293598,-1.60008 -2.095077,-2.09592 -2.256262,-1.55505 -5.357009,-0.89584 -7.994938,-0.9269 l -6.700605,-0.0317 0.279702,0.74032 c 0.307792,0.81467 1.339588,2.20508 2.230413,2.54903 1.439449,0.55578 2.595074,0.37682 4.497917,0.44025 l 3.96875,0.13229 v 0.66146 c 0,0.65745 -0.01765,0.66226 -2.910416,0.79375 -3.266747,0.14849 -1.329998,0.0139 -3.151377,0.0606 -0.02674,0.9658 -0.06474,3.84058 -0.797043,4.63966 -0.834493,0.91059 -1.019553,0.9883 -2.353471,0.9883 -1.025472,0 -1.602018,-0.1396 -1.976605,-0.4786 -0.511053,-0.46249 -0.563033,-0.46027 -1.545214,0.0661 -1.112446,0.59624 -2.230927,0.69635 -3.025976,0.27085 -0.493101,-0.2639 -0.51172,-0.1553 -0.510297,2.97656 0.0019,3.89019 0.253066,4.92863 1.537486,6.35325 1.758368,1.9503 2.201254,2.04418 9.675133,2.05077 4.184917,0.004 6.95117,-0.10423 7.591885,-0.29619 z m -15.858728,-12.90379 0.624623,-0.50579 v -6.36392 c 0,-6.88662 -0.01286,-6.95068 -1.46666,-7.30642 -0.470257,-0.11507 -0.888587,0.005 -1.389062,0.39867 -1.007862,0.12222 -0.716153,4.98509 -0.716153,6.81092 0,6.05041 0.01815,6.26693 0.575286,6.85997 0.699519,0.7446 1.537534,0.78225 2.371966,0.10657 z m 5.254831,-0.0234 c 0.297464,-0.29747 0.538578,-0.90569 0.550662,-1.38907 0.01183,-0.47294 0.04549,-1.18662 0.07482,-1.58595 0.04528,-0.61658 -0.08761,-0.77111 -0.881391,-1.02493 -0.514093,-0.16438 -1.321665,-0.58786 -1.794607,-0.94106 l -0.859896,-0.64217 v 2.527 c 0,2.17423 0.07387,2.60088 0.529166,3.05618 0.291042,0.29104 0.826823,0.52916 1.190625,0.52916 0.363803,0 0.899584,-0.23812 1.190625,-0.52916 z m 5.936915,-19.60685 c -3.009951,-5.1391 -5.606865,-9.56138 -5.770923,-9.82727 -0.676222,-1.096 -2.565477,-0.90355 -3.069243,0.31265 -0.398034,0.96094 -0.775214,0.1791 5.050541,10.46906 l 4.568378,8.06907 1.735397,0.0186 c 0.954466,0.0102 1.973519,0.11435 2.264561,0.23137 0.291041,0.11703 0.566237,0.18073 0.611544,0.14156 0.04531,-0.0392 -2.380305,-4.27593 -5.390255,-9.41504 z m -5.347515,7.71489 c -0.08712,-1.42215 -0.663906,-2.13096 -1.734053,-2.13096 -1.230376,0 -1.765763,0.65788 -1.765763,2.16976 v 1.294 l 1.785937,-0.0782 1.785938,-0.0782 z m 3.091283,-0.7419 c -0.615389,-1.12779 -1.15951,-2.10013 -1.209159,-2.16076 -0.04965,-0.0606 -0.09027,0.8621 -0.09027,2.05052 v 2.16076 h 1.20916 1.209156 z m 2.140151,-15.41198 c 0,-4.40972 -0.0392,-4.8017 -0.529167,-5.29167 -0.29104,-0.29104 -0.867902,-0.52916 -1.281909,-0.52916 -1.172493,0 -1.72094,0.82621 -1.845341,2.77992 -0.10722,1.68384 -0.09948,1.7057 1.681331,4.74752 0.983978,1.68074 1.830906,3.05589 1.882066,3.05589 0.05116,0 0.09302,-2.14312 0.09302,-4.7625 z"
       id="path826"
       inkscape:connector-curvature="0"
       sodipodi:nodetypes="cssccccssscsssccsscsssccccccccssscsscssccccscccccssccscccccccscsccscssccccscssccccscscccsssscsss" />
  </g>
</svg>
