<svg xmlns="http://www.w3.org/2000/svg" width="1304.531" height="368.269" viewBox="0 0 345.157 97.438"><defs><marker id="b" refX="0" refY="0" orient="auto" overflow="visible"><path d="M-1.926-1.21L1.352-.005l-3.278 1.206a2.05 2.05 0 0 0 0-2.411z" fill="#0a8" fill-rule="evenodd" stroke="#0a8" stroke-width=".1875" stroke-linejoin="round"/></marker><marker orient="auto" refY="0" refX="0" id="a" overflow="visible"><path d="M-1.926-1.21L1.352-.005l-3.278 1.206a2.05 2.05 0 0 0 0-2.411z" fill="#338000" fill-rule="evenodd" stroke="#338000" stroke-width=".1875" stroke-linejoin="round"/></marker></defs><path d="M213.64 96.929h4.762M218.931 96.929h5.283" fill="#0a8" stroke="#0a8" stroke-width="1.004"/><path d="M224.223 96.929h4.763M229.515 96.929h4.762M234.806 96.929h4.763M240.098 96.929h4.763M245.39 96.929h4.762M250.681 96.929h4.763" fill="#0a8" stroke="#87decd" stroke-width="1.004"/><path d="M1.973 65.179h41.215M44.306 65.179h41.216M86.64 65.179h41.215M128.973 65.179h41.215" fill="#338000" stroke="#338000" stroke-width="1.004"/><path d="M213.64 65.179h41.215" fill="#8dd35f" stroke="#aade87" stroke-width="1.004"/><path d="M171.306 65.179h42.334" fill="#338000" stroke="#338000" stroke-width="1.004"/><path d="M1.973 30.783H340.64" fill="none" stroke="#000" stroke-width="1.004"/><path d="M171.306 12.262c0 15.875-169.333 0-169.333 15.875M171.306 12.262c0 15.875 169.334 0 169.334 15.875" fill="none" stroke="#2c89a0" stroke-width=".582"/><text style="line-height:1.25" x="120.13" y="69.993" font-weight="400" font-size="10.583" font-family="sans-serif" letter-spacing="0" word-spacing="0" fill="#2c89a0" stroke-width=".265" transform="translate(-3.319 -62.488)"><tspan x="120.13" y="69.993" font-size="9.878">max path length = 64</tspan></text><path d="M44.306 28.137v5.292M86.64 28.137v5.292M128.973 28.137v5.292M171.306 28.137v5.292M213.64 28.137v5.292M255.973 28.137v5.292M298.306 28.137v5.292M340.64 28.137v5.292M1.973 28.137v5.292" fill="none" stroke="#c0f" stroke-width="1.216"/><text style="line-height:1.25" x="2.807" y="102.972" font-weight="400" font-size="10.583" font-family="sans-serif" letter-spacing="0" word-spacing="0" stroke-width=".265" transform="translate(-3.319 -62.488)"><tspan x="2.807" y="102.972" font-size="7.761" fill="#c0f">0</tspan></text><text y="102.972" x="297.226" style="line-height:1.25" font-weight="400" font-size="10.583" font-family="sans-serif" letter-spacing="0" word-spacing="0" stroke-width=".265" transform="translate(-3.319 -62.488)"><tspan y="102.972" x="297.226" font-size="7.761" fill="#c0f">56</tspan></text><text style="line-height:1.25" x="254.864" y="102.972" font-weight="400" font-size="10.583" font-family="sans-serif" letter-spacing="0" word-spacing="0" stroke-width=".265" transform="translate(-3.319 -62.488)"><tspan x="254.864" y="102.972" font-size="7.761" fill="#c0f">48</tspan></text><text y="102.972" x="212.501" style="line-height:1.25" font-weight="400" font-size="10.583" font-family="sans-serif" letter-spacing="0" word-spacing="0" stroke-width=".265" transform="translate(-3.319 -62.488)"><tspan y="102.972" x="212.501" font-size="7.761" fill="#c0f">40</tspan></text><text style="line-height:1.25" x="339.032" y="102.972" font-weight="400" font-size="10.583" font-family="sans-serif" letter-spacing="0" word-spacing="0" stroke-width=".265" transform="translate(-3.319 -62.488)"><tspan x="339.032" y="102.972" font-size="7.761" fill="#c0f">64</tspan></text><text y="102.972" x="127.777" style="line-height:1.25" font-weight="400" font-size="10.583" font-family="sans-serif" letter-spacing="0" word-spacing="0" stroke-width=".265" transform="translate(-3.319 -62.488)"><tspan y="102.972" x="127.777" font-size="7.761" fill="#c0f">24</tspan></text><text style="line-height:1.25" x="85.415" y="102.972" font-weight="400" font-size="10.583" font-family="sans-serif" letter-spacing="0" word-spacing="0" stroke-width=".265" transform="translate(-3.319 -62.488)"><tspan x="85.415" y="102.972" font-size="7.761" fill="#c0f">16</tspan></text><text y="102.972" x="45.169" style="line-height:1.25" font-weight="400" font-size="10.583" font-family="sans-serif" letter-spacing="0" word-spacing="0" stroke-width=".265" transform="translate(-3.319 -62.488)"><tspan y="102.972" x="45.169" font-size="7.761" fill="#c0f">8</tspan></text><text style="line-height:1.25" x="170.139" y="102.972" font-weight="400" font-size="10.583" font-family="sans-serif" letter-spacing="0" word-spacing="0" stroke-width=".265" transform="translate(-3.319 -62.488)"><tspan x="170.139" y="102.972" font-size="7.761" fill="#c0f">32</tspan></text><text style="line-height:1.25" x="3.151" y="124.697" font-weight="400" font-size="10.583" font-family="sans-serif" letter-spacing="0" word-spacing="0" fill="#338000" stroke-width=".265" transform="translate(-3.319 -62.488)"><tspan x="3.151" y="124.697">1.</tspan></text><text y="156.715" x="214.473" style="line-height:1.25" font-weight="400" font-size="10.583" font-family="sans-serif" letter-spacing="0" word-spacing="0" fill="#0a8" stroke-width=".265" transform="translate(-3.319 -62.488)"><tspan y="156.715" x="214.473">2.</tspan></text><path d="M224.223 31.227l1.323 2.291 1.323 2.292h-5.292l1.323-2.292z" fill="#d40000" stroke="#a00" stroke-width=".529"/><text style="line-height:1.25" x="222.707" y="91.254" font-weight="400" font-size="10.583" font-family="sans-serif" letter-spacing="0" word-spacing="0" fill="#d40000" stroke-width=".265" transform="translate(-3.319 -62.488)"><tspan x="222.707" y="91.254" font-size="7.761">42</tspan></text><path d="M216.958 127.667v-5.292" fill="#338000" stroke="#338000" stroke-width="1.004" stroke-linecap="round" marker-end="url(#a)" transform="translate(-3.319 -62.488)"/><path d="M255.973 65.179h41.215M298.306 65.179h41.216" fill="#8dd35f" stroke="#aade87" stroke-width="1.004"/><path d="M227.542 159.417v-5.292" fill="#0a8" stroke="#0a8" stroke-width="1.004" stroke-linecap="round" marker-end="url(#b)" transform="translate(-3.319 -62.488)"/></svg>